<mxfile host="app.diagrams.net" modified="2023-02-28T07:55:08.746Z" agent="5.0 (Windows NT 10.0; Win64; x64) AppleWebKit/537.36 (KHTML, like Gecko) Chrome/110.0.0.0 Safari/537.36" etag="cnZ3r0R4_uLg0USnPp-d" version="20.8.23" type="github">
  <diagram name="페이지-1" id="8fVfivKaqcz5Kfj5JcjD">
    <mxGraphModel dx="1325" dy="654" grid="1" gridSize="10" guides="1" tooltips="1" connect="1" arrows="1" fold="1" page="1" pageScale="1" pageWidth="1169" pageHeight="827" math="0" shadow="0">
      <root>
        <mxCell id="0" />
        <mxCell id="1" parent="0" />
        <mxCell id="g5WXj2sJrPJXb09EC9Lx-1" value="pfsense" style="rounded=0;whiteSpace=wrap;html=1;" vertex="1" parent="1">
          <mxGeometry x="490" y="140" width="120" height="60" as="geometry" />
        </mxCell>
        <mxCell id="g5WXj2sJrPJXb09EC9Lx-2" value="vmwareNAT" style="ellipse;shape=cloud;whiteSpace=wrap;html=1;" vertex="1" parent="1">
          <mxGeometry x="490" y="40" width="120" height="80" as="geometry" />
        </mxCell>
        <mxCell id="g5WXj2sJrPJXb09EC9Lx-3" value="rhel router" style="rounded=0;whiteSpace=wrap;html=1;" vertex="1" parent="1">
          <mxGeometry x="490" y="220" width="120" height="60" as="geometry" />
        </mxCell>
      </root>
    </mxGraphModel>
  </diagram>
</mxfile>
